PathFileType	4	(X/Y/Z)	/Users/niels/Desktop/University/Third Semester/Perception and Action/Exam/Gymnastics Motion Tracking/Code for Gym Tracking/Analyzed Data/Webcam_Backflip/id5_2_baseline_Sports2D/id5_2_baseline_Sports2D_px_person00.trc
DataRate	CameraRate	NumFrames	NumMarkers	Units	OrigDataRate	OrigDataStartFrame	OrigNumFrames
29.81132075471698	29.81132075471698	10	22	m	29.81132075471698	99	159
Frame#	Time	Hip			RHip			RKnee			RAnkle			RBigToe			RSmallToe			RHeel			LHip			LKnee			LAnkle			LBigToe			LSmallToe			LHeel			Neck			Head			Nose			RShoulder			RElbow			RWrist			LShoulder			LElbow			LWrist		
		X1	Y1	Z1	X2	Y2	Z2	X3	Y3	Z3	X4	Y4	Z4	X5	Y5	Z5	X6	Y6	Z6	X7	Y7	Z7	X8	Y8	Z8	X9	Y9	Z9	X10	Y10	Z10	X11	Y11	Z11	X12	Y12	Z12	X13	Y13	Z13	X14	Y14	Z14	X15	Y15	Z15	X16	Y16	Z16	X17	Y17	Z17	X18	Y18	Z18	X19	Y19	Z19	X20	Y20	Z20	X21	Y21	Z21	X22	Y22	Z22
99	3.320886075949367	0.7060115150809794	-0.5646231158870957	0.0	0.6998303502230424	-0.5659508112178315	0.0	0.764851172351734	-0.6491555818561823	0.0	0.8120459828778843	-0.7493331838002558	0.0	0.8549738687700341	-0.7634166895384067	0.0	0.8492073009658336	-0.7714668843550139	0.0	0.8079091785010317	-0.7686894998274153	0.0	0.7106241633976775	-0.5635494744609896	0.0	0.6927151529120513	-0.6699288747617387	0.0	0.65855033976027	-0.7639328515690883	0.0	0.6992285805142884	-0.7848313409704241	0.0	0.6930690611043164	-0.7775771679833242	0.0	0.6472853909727636	-0.778174131519614	0.0	0.6979409779157548	-0.4235047372055481	0.0	0.712305298702748	-0.3583029492297192	0.0	0.7278966305610209	-0.3914905832217282	0.0	0.6748638122838154	-0.4440253719935836	0.0	0.6459667333601976	-0.5112947336031037	0.0	0.6292578394401949	-0.5714297249574738	0.0	0.7183949976027926	-0.43761045613676675	0.0	0.7109876526686327	-0.5085724558819554	0.0	0.7222732971388366	-0.5605978237676463	0.0
100	3.354430379746835	0.7079298790066421	-0.5601822418985091	0.0	0.7020561884415247	-0.5613747965155336	0.0	0.7675006347462184	-0.6444510753825332	0.0	0.8067215125874575	-0.7481716847011722	0.0	0.8499542123144238	-0.763010895480923	0.0	0.8436216073200986	-0.7709692113695327	0.0	0.8014616554983054	-0.7678433848836873	0.0	0.7121973701031634	-0.5588750701093568	0.0	0.6929989150347586	-0.666217967848138	0.0	0.658736841544561	-0.7606193527566932	0.0	0.7001136940897171	-0.7817084573464342	0.0	0.6940845695530132	-0.7746584364020835	0.0	0.6475200348360499	-0.774998662810186	0.0	0.6991825322655258	-0.4190225075795666	0.0	0.7131348037870312	-0.35368485275334594	0.0	0.729135973330941	-0.3869448116538503	0.0	0.6766078523505299	-0.43916901112516965	0.0	0.6456721033571357	-0.5057161857497542	0.0	0.6344064234998135	-0.5652982194632661	0.0	0.7199776911172439	-0.43226169504094925	0.0	0.7094973623032805	-0.5024237267186933	0.0	0.7143554877333941	-0.5571894701120939	0.0
101	3.3879746835443036	0.7096218996923719	-0.5579018952903512	0.0	0.7039691923336008	-0.5588222139077358	0.0	0.7701556432321061	-0.6415859798657632	0.0	0.7995658204330656	-0.7487399892661224	0.0	0.8432321315640717	-0.7641657329808089	0.0	0.8362632508822909	-0.771710548704431	0.0	0.7931024825721985	-0.7684181743982289	0.0	0.7133784714531148	-0.5563807820515027	0.0	0.6932402351864457	-0.6644043008959086	0.0	0.6588257802119535	-0.7591290190249305	0.0	0.7005913552209847	-0.7800088799765361	0.0	0.6948111541796422	-0.7734427905659506	0.0	0.6478347848568763	-0.7736647479882327	0.0	0.7010165793850918	-0.4163910866326957	0.0	0.7143308511399732	-0.35096227995810586	0.0	0.7310604854511649	-0.3844268191423082	0.0	0.67901984568538	-0.43653152914382537	0.0	0.6466834653147033	-0.502436116901526	0.0	0.6407991534368135	-0.5622602348670693	0.0	0.7216256265663133	-0.4290744215282098	0.0	0.7091107972614505	-0.49821935729612143	0.0	0.711077575635749	-0.5540679731815171	0.0
102	3.421518987341772	0.7111937887971369	-0.5578690007657109	0.0	0.7056183558130026	-0.5583898307688379	0.0	0.7724750029666321	-0.6409722440071284	0.0	0.7910688004582085	-0.7509678348426768	0.0	0.8350581042258369	-0.7668275183522218	0.0	0.8274794674775555	-0.773860008579882	0.0	0.7834680237629258	-0.7703761241768767	0.0	0.7142998443237776	-0.5561021151941407	0.0	0.6935570755459747	-0.6643921659046363	0.0	0.6588740802154203	-0.7594196576673865	0.0	0.7008576152870487	-0.7800226207121554	0.0	0.6953549366004239	-0.7738820822687524	0.0	0.6481335133425821	-0.7740482916455754	0.0	0.7034004931131758	-0.4157408359653251	0.0	0.7159539549139207	-0.35041945023784543	0.0	0.7335592524521217	-0.38401029379181534	0.0	0.6819515955242009	-0.4363427040381106	0.0	0.6495756882113625	-0.5020604594813816	0.0	0.6477138629081197	-0.563108566309595	0.0	0.723272780058556	-0.42826134058137866	0.0	0.7099436174070386	-0.49689344410983605	0.0	0.7123739185367477	-0.553235491462695	0.0
103	3.4550632911392403	0.7127708268837963	-0.5600623749980388	0.0	0.7071486194927833	-0.5600956147547733	0.0	0.7741023710256796	-0.6429413341149219	0.0	0.7820961352371693	-0.7548880468330803	0.0	0.8261711555211723	-0.7709241522949625	0.0	0.8180860215088585	-0.7775210823123083	0.0	0.7735591081423082	-0.7738377272901239	0.0	0.7151214414098066	-0.5579685102045813	0.0	0.6940681176260914	-0.6660612356770009	0.0	0.6589322122444553	-0.7613929226089109	0.0	0.70099617848612	-0.7818690499296129	0.0	0.6957452787563146	-0.7758956952250563	0.0	0.6483365615745487	-0.7759723623023622	0.0	0.7062620980889494	-0.41706918809468246	0.0	0.7180698696614368	-0.3521568033133183	0.0	0.7365108392390058	-0.3856730601322677	0.0	0.6851852304310813	-0.4385949493100933	0.0	0.6547151729379818	-0.5046928496830813	0.0	0.6551990376108511	-0.5676155548784718	0.0	0.7249672172247902	-0.4298729459539475	0.0	0.7120949611806418	-0.49879362329868876	0.0	0.7170560743474523	-0.5556216825348747	0.0
104	3.488607594936709	0.7143992174580284	-0.5643238239328179	0.0	0.7087511216109738	-0.5638084701432979	0.0	0.7748000717861987	-0.6475879187788716	0.0	0.7736873090388159	-0.7605882577014647	0.0	0.8176490859355832	-0.7763863823990471	0.0	0.8091822007864855	-0.7826814156841043	0.0	0.7645213650096754	-0.7789758473456831	0.0	0.7159040821410104	-0.5618319090411336	0.0	0.6948528877648228	-0.6692474856677002	0.0	0.6590183271056901	-0.7648841327749407	0.0	0.7010120206184994	-0.7854185126289941	0.0	0.695952313554289	-0.7793975932592614	0.0	0.648437388322001	-0.7792643932343393	0.0	0.7094795850250789	-0.4202529117243616	0.0	0.7207670350838112	-0.35597237180945535	0.0	0.7398547893403352	-0.389269095810205	0.0	0.6885953138645218	-0.4430100443569103	0.0	0.6620674055371083	-0.5099577020310465	0.0	0.6638629102785232	-0.5747155913680742	0.0	0.7267284670787384	-0.4337572787273444	0.0	0.715411373147109	-0.503567310826078	0.0	0.7234780474997927	-0.560966258582654	0.0
105	3.522151898734177	0.7160469117526662	-0.5703170186235877	0.0	0.7106422650664198	-0.5692184311251961	0.0	0.7745701130845746	-0.6546290705992247	0.0	0.7667561761178747	-0.767992636756188	0.0	0.810431811967626	-0.7830562201911985	0.0	0.8016905957736672	-0.7891477648085613	0.0	0.7573316906517371	-0.7857323471984105	0.0	0.7166178721576261	-0.5674474368688802	0.0	0.6959105345965442	-0.6736973956961816	0.0	0.659120068837381	-0.769631505715921	0.0	0.7009229117218424	-0.7903235202143166	0.0	0.6959446232250415	-0.7842505744814033	0.0	0.6484834949572066	-0.7837340710746195	0.0	0.7129113356847011	-0.4250280271137943	0.0	0.7241334471186018	-0.3613872018172804	0.0	0.7435727511074897	-0.39450465088039616	0.0	0.6921786287994197	-0.44904560209972694	0.0	0.6712210841148594	-0.5170882000368408	0.0	0.6744423505645853	-0.5829453509883796	0.0	0.728523454636304	-0.4395365307713252	0.0	0.7195291248699499	-0.5103208727592524	0.0	0.7304391630450168	-0.5680289159116539	0.0
106	3.5556962025316454	0.7176607340579954	-0.5775141507450001	0.0	0.7129681807491666	-0.5758569931467984	0.0	0.7736791130803774	-0.6633853878020068	0.0	0.7618116171300098	-0.7766937958490724	0.0	0.8048311812931331	-0.7905810811831204	0.0	0.7959063829737657	-0.7964953888613971	0.0	0.7524824562789568	-0.7936434112706714	0.0	0.7172332842284486	-0.5743786108836161	0.0	0.697146390893645	-0.6790512436257434	0.0	0.6592022524472649	-0.7752339459917723	0.0	0.7007906664678165	-0.7960880805179601	0.0	0.6957622840024952	-0.7901626986064674	0.0	0.6485006841772973	-0.7890880571439003	0.0	0.7164661467660253	-0.43097212640236937	0.0	0.7281615997079781	-0.36776773694865417	0.0	0.7476390629421739	-0.4009148609107948	0.0	0.6959998885700166	-0.4560055227174887	0.0	0.6815127125884869	-0.5251112515586078	0.0	0.6873646939412262	-0.5908922113332457	0.0	0.7303215683890089	-0.44659730330811537	0.0	0.7240197122244395	-0.5179137002769242	0.0	0.7375719322195484	-0.5749698372535388	0.0
107	3.589240506329114	0.7192417674019396	-0.5852064944121074	0.0	0.7157134381718763	-0.5831085985539766	0.0	0.772561572634912	-0.6729043126367878	0.0	0.7588435607152734	-0.7859981423086428	0.0	0.8004892240310439	-0.7984054518647888	0.0	0.7914385612605963	-0.8041223632927644	0.0	0.7498582009049334	-0.801943193655151	0.0	0.7178242910644773	-0.5819216911864852	0.0	0.6984327201639269	-0.6848353921783406	0.0	0.6592241144166514	-0.7811300310457024	0.0	0.7006644507992805	-0.80212372684217	0.0	0.6955110857004516	-0.7965911461073856	0.0	0.6484602597582098	-0.7948538980015141	0.0	0.7201383665416894	-0.4375100155055048	0.0	0.7326935991363892	-0.37444018979427446	0.0	0.7520021255729078	-0.40787381128308753	0.0	0.7001859902750873	-0.4631135596518538	0.0	0.6921781830746045	-0.5330363813448241	0.0	0.7024510552001112	-0.5974467695378859	0.0	0.7321224002681269	-0.4541222079808648	0.0	0.7285227360542867	-0.5252231752029352	0.0	0.7452655361560567	-0.5798526983406822	0.0
108	3.622784810126582	0.7209283426338003	-0.5925787486829006	0.0	0.7187954841609359	-0.5902309444511947	0.0	0.7716590370383283	-0.6821615770927737	0.0	0.7574514302644375	-0.7950993918678018	0.0	0.7967828245363886	-0.805869277888783	0.0	0.7875928657070629	-0.8113809271667174	0.0	0.7488962501638095	-0.8098045239063172	0.0	0.7186400675459432	-0.5891919454151748	0.0	0.6997406408749748	-0.6904797901761595	0.0	0.659178352558536	-0.7866549264913868	0.0	0.7005147032284262	-0.8078210465720854	0.0	0.6952655591550592	-0.8027986927671229	0.0	0.648320260473273	-0.8003836127499504	0.0	0.7239910131502381	-0.4439458787799411	0.0	0.7375121323737627	-0.38076039132208395	0.0	0.7565915926651482	-0.4146925531137137	0.0	0.7049058153652835	-0.4695684736237614	0.0	0.7025192095744716	-0.540032099778259	0.0	0.7189053225495825	-0.6019554022460432	0.0	0.7339780971178107	-0.46121902274355586	0.0	0.7328828771560321	-0.5313744880332397	0.0	0.7541557712359264	-0.5813429919415188	0.0
